<?xml version="1.0" encoding="UTF-8"?>
<svg version="1.1" xmlns="http://www.w3.org/2000/svg" width="640" height="535">
<path d="M0 0 C1.21601898 -0.00855011 1.21601898 -0.00855011 2.456604 -0.01727295 C4.17108883 -0.02668033 5.88559139 -0.03323989 7.60009766 -0.03710938 C10.15431872 -0.0466919 12.70769023 -0.07770326 15.26171875 -0.109375 C50.80409318 -0.33962013 82.83001229 11.77634648 108.390625 36.765625 C124.82592618 53.82474783 132.98052496 75.43188738 137.703125 98.265625 C137.85434814 98.99499268 138.00557129 99.72436035 138.16137695 100.47583008 C141.1727492 116.23324768 141.72217558 131.83858349 141.60345459 147.83775139 C141.57743015 151.38775396 141.56477048 154.93760317 141.55517578 158.48768616 C141.52873073 167.30620289 141.4805008 176.12457276 141.43237305 184.94299316 C141.39241493 192.41203112 141.36133983 199.88101148 141.34124756 207.35013008 C141.3285801 210.79423313 141.3035708 214.23808769 141.27783203 217.68211365 C141.09684975 256.53176078 143.07545693 299.60714677 171.203125 329.515625 C187.54621469 345.0289886 209.47257697 351.02508579 231.5168457 351.49975586 C232.28510115 351.51902445 233.05335659 351.53829304 233.8448925 351.55814552 C236.41864222 351.62052206 238.99247756 351.67600355 241.56640625 351.73046875 C242.93591651 351.76109563 242.93591651 351.76109563 244.33309364 351.79234123 C272.76446326 352.42128907 301.20385465 352.55877416 329.640625 352.765625 C348.71875 352.91 367.796875 353.054375 387.453125 353.203125 C387.453125 290.833125 387.453125 228.463125 387.453125 164.203125 C369.34209316 163.4979754 369.34209316 163.4979754 353.453125 168.203125 C346.05810838 171.62469985 346.05810838 171.62469985 341.453125 170.203125 C339.50854492 168.71264648 339.50854492 168.71264648 337.68359375 166.82421875 C337.02294922 166.15068359 336.36230469 165.47714844 335.68164062 164.78320312 C335.00810547 164.07615234 334.33457031 163.36910156 333.640625 162.640625 C332.94775391 161.92970703 332.25488281 161.21878906 331.54101562 160.48632812 C329.8356733 158.73394188 328.14037324 156.97291031 326.453125 155.203125 C341.10322642 140.09441171 363.61138742 136.4382386 383.90600586 135.97363281 C394.7588527 135.87116691 404.99594328 137.21535879 415.453125 140.203125 C415.453125 218.743125 415.453125 297.283125 415.453125 378.203125 C381.1125 378.265 346.771875 378.326875 311.390625 378.390625 C295.18118774 378.43159302 295.18118774 378.43159302 278.64428711 378.47338867 C265.35461426 378.48693848 265.35461426 378.48693848 259.11500549 378.48945618 C254.79680163 378.49222878 250.47871065 378.50338101 246.16053772 378.51985168 C240.62397525 378.54068441 235.08757298 378.54655205 229.55097497 378.54234183 C227.53684338 378.54322003 225.52270522 378.54901583 223.50860775 378.56077039 C185.60702786 378.77139449 148.75367615 370.93333507 118.453125 347.203125 C116.90431641 345.99076172 116.90431641 345.99076172 115.32421875 344.75390625 C100.82582007 333.05511993 87.13168541 319.50419729 76.453125 304.203125 C76.04191406 303.61450684 75.63070312 303.02588867 75.20703125 302.41943359 C52.28126166 268.96816464 42.71073288 228.89953889 32.87109375 190.15625 C21.05719779 141.52681999 21.05719779 141.52681999 2.453125 95.203125 C2.0627002 94.41276855 1.67227539 93.62241211 1.27001953 92.80810547 C-5.72643315 78.73597436 -13.65061112 66.61996821 -24.546875 55.203125 C-25.03560593 54.68282715 -25.52433685 54.1625293 -26.02787781 53.62646484 C-30.1972782 49.30238767 -34.54803911 45.88006417 -39.5625 42.59375 C-40.30014587 42.10026062 -41.03779175 41.60677124 -41.79779053 41.09832764 C-44.12587316 39.54234564 -46.46082865 37.99711923 -48.796875 36.453125 C-51.14607712 34.89325094 -53.49368705 33.33108173 -55.83880615 31.76507568 C-57.29081975 30.79617654 -58.74534954 29.83103473 -60.20269775 28.87017822 C-60.86058289 28.43252136 -61.51846802 27.9948645 -62.19628906 27.54394531 C-62.77252014 27.16312805 -63.34875122 26.78231079 -63.94244385 26.38995361 C-65.64888086 25.1276693 -67.08396951 23.73756723 -68.546875 22.203125 C-67.59585257 19.85714763 -66.97606101 18.47778228 -64.8137207 17.09399414 C-64.12366943 16.81160889 -63.43361816 16.52922363 -62.72265625 16.23828125 C-61.5622583 15.75439941 -61.5622583 15.75439941 -60.37841797 15.26074219 C-59.1314917 14.76815918 -59.1314917 14.76815918 -57.859375 14.265625 C-56.57377686 13.74403809 -56.57377686 13.74403809 -55.26220703 13.21191406 C-37.64132677 6.15307529 -19.14141089 0.10741304 0 0 Z " fill="#D40000" transform="translate(114.546875,-0.203125)"/>
<path d="M0 0 C0.83510101 -0.00983917 1.67020203 -0.01967834 2.53060913 -0.02981567 C20.78015233 -0.20040376 38.34927001 -0.03840988 56.19140625 4.23828125 C58.02517822 4.67213135 58.02517822 4.67213135 59.89599609 5.11474609 C66.01608637 6.57457768 72.11637099 8.09313904 78.20503235 9.67903137 C79.8881752 10.1172533 79.8881752 10.1172533 81.60532093 10.56432819 C82.45872909 10.7867327 83.31213724 11.00913721 84.19140625 11.23828125 C84.93280345 31.43473932 85.33909629 51.59572647 85.30747187 71.80802011 C85.30303248 75.39303969 85.30462304 78.97805827 85.30537415 82.56307983 C85.3058911 88.73180586 85.30283271 94.90052108 85.29713631 101.06924438 C85.2889064 109.98748545 85.28639452 118.90572145 85.28514832 127.82396591 C85.28297554 142.30354532 85.27636431 156.783119 85.2668457 171.26269531 C85.25762517 185.30371065 85.25056723 199.34472442 85.24633789 213.38574219 C85.24607517 214.25551174 85.24581244 215.12528128 85.24554176 216.02140749 C85.24423644 220.38606412 85.2429728 224.75072077 85.24172986 229.11537743 C85.23141265 265.15634941 85.21384353 301.19731488 85.19140625 337.23828125 C-98.76777417 337.4348349 -98.76777417 337.4348349 -156.17724609 337.02975464 C-160.32943582 337.00068128 -164.48151696 336.98003787 -168.63378906 336.96755981 C-191.35628429 336.89258022 -213.35769596 335.93944815 -235.80859375 332.23828125 C-236.65666595 332.10270813 -237.50473816 331.96713501 -238.37850952 331.82745361 C-242.71165896 331.12714781 -247.01111213 330.32325115 -251.30859375 329.42578125 C-253.14526611 329.04740112 -253.14526611 329.04740112 -255.01904297 328.66137695 C-300.37836915 319.00901155 -341.04222208 296.13021894 -369.80859375 259.23828125 C-370.44087891 258.42858887 -370.44087891 258.42858887 -371.0859375 257.60253906 C-392.89849437 229.43068334 -406.5526973 197.22030749 -418.84765625 164.05078125 C-432.08526007 127.44130816 -432.08526007 127.44130816 -454.80859375 96.23828125 C-455.55496094 95.40683594 -456.30132812 94.57539063 -457.0703125 93.71875 C-467.47015002 82.52818103 -481.02603805 76.31824554 -494.80859375 70.23828125 C-489.9503057 59.03447411 -475.11123004 52.16521606 -464.30859375 47.86328125 C-447.03411989 42.1051233 -427.8853467 42.7825941 -411.49609375 50.80078125 C-396.28279821 58.6835658 -386.93261582 70.9564484 -380.875 86.734375 C-380.45191055 87.81512802 -380.02882111 88.89588104 -379.59291077 90.00938416 C-375.02195669 101.91524859 -371.35084711 114.07521333 -367.74609375 126.30078125 C-361.31243007 148.0356074 -354.52988032 169.66194521 -344.49609375 190.05078125 C-343.94759766 191.17403809 -343.39910156 192.29729492 -342.83398438 193.45458984 C-332.20505925 214.82531904 -318.35832055 234.06450743 -301.80859375 251.23828125 C-301.04675781 252.06328125 -300.28492188 252.88828125 -299.5 253.73828125 C-272.10454215 282.5658794 -228.53295394 304.41546495 -188.48336792 305.54356384 C-187.78971421 305.56351398 -187.09606051 305.58346412 -186.381387 305.60401881 C-184.07190713 305.6681251 -181.7623313 305.72519758 -179.45263672 305.78100586 C-178.22543809 305.81213213 -178.22543809 305.81213213 -176.97344756 305.84388721 C-154.91832562 306.39486967 -132.85917228 306.46188749 -110.79832458 306.54219818 C-105.50933436 306.56224903 -100.22036918 306.58695531 -94.93139648 306.61120605 C-79.59881491 306.67892774 -64.26620218 306.73944164 -48.93359375 306.80078125 C-14.57234375 306.94515625 19.78890625 307.08953125 55.19140625 307.23828125 C55.19140625 215.49828125 55.19140625 123.75828125 55.19140625 29.23828125 C11.69090652 20.95247178 -31.39524134 22.76773656 -69.61230469 47.40087891 C-72.48516911 49.23557671 -74.314985 50.25523479 -77.765625 50.13671875 C-78.76980469 49.84023437 -79.77398437 49.54375 -80.80859375 49.23828125 C-82.02933594 48.87992188 -83.25007813 48.5215625 -84.5078125 48.15234375 C-85.83835216 47.72611385 -87.16774955 47.29630482 -88.49609375 46.86328125 C-94.89210856 44.81788901 -101.30903321 42.93202266 -107.80859375 41.23828125 C-104.08044799 36.9365746 -99.40123724 34.35203418 -94.55859375 31.48828125 C-93.66833496 30.95895996 -92.77807617 30.42963867 -91.86083984 29.88427734 C-84.02355845 25.27435901 -76.05590015 21.06299157 -67.80859375 17.23828125 C-66.66390625 16.7071875 -65.51921875 16.17609375 -64.33984375 15.62890625 C-48.65845379 8.65140705 -32.73177808 4.02034352 -15.80859375 1.23828125 C-14.74398926 1.06248535 -13.67938477 0.88668945 -12.58251953 0.70556641 C-8.36450577 0.18329455 -4.24520019 0.04103565 0 0 Z " fill="#D40000" transform="translate(494.80859375,90.76171875)"/>
<path d="M0 0 C3.64370695 3.05238914 7.01373788 6.33361419 10.35400391 9.71289062 C11.08232422 10.43089844 11.81064453 11.14890625 12.56103516 11.88867188 C21.82687757 21.59313405 28.37933636 33.97836755 32.35400391 46.71289062 C32.67240234 47.69386719 32.99080078 48.67484375 33.31884766 49.68554688 C39.6445566 73.21018799 35.88406594 99.45543615 24.35400391 120.71289062 C21.93783695 124.61820537 19.28684932 128.18251222 16.35400391 131.71289062 C15.3040625 132.9890625 15.3040625 132.9890625 14.23291016 134.29101562 C-1.55226194 152.63670583 -23.40797637 164.57078961 -47.64599609 166.71289062 C-73.91475646 168.56847676 -98.19307966 161.1316332 -118.23950195 143.89355469 C-135.19133928 128.74958906 -147.28157471 107.53274299 -148.86035156 84.59912109 C-149.49696641 70.82959799 -149.29250533 57.78689212 -144.64599609 44.71289062 C-144.27216797 43.65457031 -143.89833984 42.59625 -143.51318359 41.50585938 C-134.07263654 17.1542496 -116.3184865 -0.96068747 -92.58349609 -11.59960938 C-62.64915443 -23.86668925 -25.82416793 -20.19356472 0 0 Z " fill="#000000" transform="translate(430.64599609375,165.287109375)"/>
<path d="M0 0 C7.404375 -0.04125 14.80875 -0.0825 22.4375 -0.125 C24.7570874 -0.14320801 27.0766748 -0.16141602 29.46655273 -0.18017578 C31.33056406 -0.18602378 33.19457797 -0.19111861 35.05859375 -0.1953125 C36.00577271 -0.20554443 36.95295166 -0.21577637 37.92883301 -0.22631836 C47.08333976 -0.2286903 54.54726073 0.44536383 61.26953125 7.046875 C67.34129187 13.89987796 67.83119924 20.91919584 67.4453125 29.85546875 C66.83632701 37.3725271 63.80028353 42.68529417 58.1875 47.625 C57.135625 48.40875 56.08375 49.1925 55 50 C56.36748298 54.44620615 58.12566648 58.43901865 60.2578125 62.5703125 C60.88953377 63.80848619 61.52103785 65.04677072 62.15234375 66.28515625 C63.14132354 68.21334655 64.13283664 70.14015084 65.12841797 72.06494141 C66.09525589 73.93821961 67.05208421 75.81634785 68.0078125 77.6953125 C68.86850342 79.3661792 68.86850342 79.3661792 69.74658203 81.07080078 C71 84 71 84 71 88 C66.66997925 88.39685951 62.33875867 88.71467453 58 89 C56.80632812 89.09152344 55.61265625 89.18304687 54.3828125 89.27734375 C53.24585938 89.33019531 52.10890625 89.38304687 50.9375 89.4375 C49.89464844 89.49808594 48.85179687 89.55867187 47.77734375 89.62109375 C45 89 45 89 42.9140625 86.6328125 C40.32574117 82.11643546 38.41493463 77.2426995 36.4375 72.4375 C33.30658554 62.93721894 33.30658554 62.93721894 27 56 C27.0721875 57.05316406 27.144375 58.10632813 27.21875 59.19140625 C27.84813736 68.81396487 28.12633389 78.35651306 28 88 C22.71619943 89.08784129 17.61686215 89.14950622 12.25 89.125 C11.38761719 89.12886719 10.52523438 89.13273438 9.63671875 89.13671875 C8.40115234 89.13478516 8.40115234 89.13478516 7.140625 89.1328125 C6.39329102 89.13168457 5.64595703 89.13055664 4.87597656 89.12939453 C3 89 3 89 1 88 C0.67 58.96 0.34 29.92 0 0 Z M29 18 C26.96879293 21.04681061 26.75340125 21.60118324 26.8046875 25.01171875 C26.81113281 25.76904297 26.81757813 26.52636719 26.82421875 27.30664062 C26.84097656 28.09232422 26.85773438 28.87800781 26.875 29.6875 C26.88402344 30.48478516 26.89304687 31.28207031 26.90234375 32.10351562 C26.92588415 34.069139 26.96175453 36.03460775 27 38 C28.2478125 37.87625 29.495625 37.7525 30.78125 37.625 C31.8340918 37.52058594 31.8340918 37.52058594 32.90820312 37.4140625 C36.86884157 36.63007058 38.40000883 35.1199894 41 32 C41.92665341 27.28399603 41.67631807 24.01447711 39 20 C36.58392583 19.20201782 36.58392583 19.20201782 33.875 18.8125 C32.50988281 18.57466797 32.50988281 18.57466797 31.1171875 18.33203125 C30.41851562 18.22246094 29.71984375 18.11289062 29 18 Z " fill="#000000" transform="translate(274,446)"/>
<path d="M0 0 C18.15 0 36.3 0 55 0 C55 6.27 55 12.54 55 19 C45.76 19 36.52 19 27 19 C27 23.95 27 28.9 27 34 C35.58 33.67 44.16 33.34 53 33 C53 46 53 46 52 52 C46.63510405 52.90483637 41.49682543 53.12303662 36.0625 53.0625 C35.28326172 53.05798828 34.50402344 53.05347656 33.70117188 53.04882812 C31.80074732 53.03716908 29.90036294 53.01923877 28 53 C27.67 57.95 27.34 62.9 27 68 C37.23 68 47.46 68 58 68 C57.855625 70.743125 57.71125 73.48625 57.5625 76.3125 C57.51939697 77.17270752 57.47629395 78.03291504 57.43188477 78.91918945 C57.39377686 79.60198975 57.35566895 80.28479004 57.31640625 80.98828125 C57.26141968 82.03302612 57.26141968 82.03302612 57.20532227 83.09887695 C57 85 57 85 56 88 C37.52 88 19.04 88 0 88 C0 58.96 0 29.92 0 0 Z " fill="#000000" transform="translate(206,446)"/>
<path d="M0 0 C1 1 1 1 1.1328125 2.93359375 C1.11384658 9.01217003 0.71913057 14.9644399 0 21 C-3 22 -3 22 -5.12890625 21.0390625 C-5.93199219 20.57242187 -6.73507813 20.10578125 -7.5625 19.625 C-14.03948378 16.21107004 -19.87806846 15.21951711 -27 17 C-27 19.97 -27 22.94 -27 26 C-26.33871094 26.25136719 -25.67742187 26.50273437 -24.99609375 26.76171875 C-21.27390244 28.30009508 -17.67382776 30.03198464 -14.0625 31.8125 C-13.02706055 32.3084668 -13.02706055 32.3084668 -11.97070312 32.81445312 C-4.6499397 36.42973061 0.59322195 40.48257097 4.08203125 48.05859375 C6.64889413 56.2834778 5.91299902 65.06187707 2.25 72.8203125 C-1.9007375 80.05816102 -7.01108903 84.34349624 -15 87 C-19.68824896 87.57088117 -24.27019744 87.63959985 -28.98681641 87.54199219 C-31.12886048 87.49992418 -33.26776566 87.50095685 -35.41015625 87.5078125 C-42.89311948 87.45120768 -47.70741795 86.73471827 -55 84 C-54.67 76.74 -54.34 69.48 -54 62 C-45 65 -45 65 -42.25 65.984375 C-36.63813504 67.89396794 -31.79871962 68.57715687 -26 67 C-22.99309803 65.34509852 -22.99309803 65.34509852 -22.0625 63.1875 C-21.79812308 60.85710181 -21.79812308 60.85710181 -23.4140625 58.6640625 C-27.48570512 54.46940953 -32.57871282 52.46411701 -37.82617188 50.01367188 C-45.09529115 46.42787902 -50.51062286 41.65680593 -53.9375 34.1875 C-56.52980313 25.95975528 -55.61891707 16.76586118 -52 9 C-47.49319747 1.92835051 -41.69860905 -1.59668196 -33.65234375 -3.578125 C-21.95616228 -5.43848965 -11.12810282 -3.52531501 0 0 Z " fill="#000000" transform="translate(189,448)"/>
<path d="M0 0 C3.96 0 7.92 0 12 0 C14.83899909 3.06147036 16.17748267 4.99731901 17.9375 8.625 C18.93523647 10.47187389 19.93396978 12.31820954 20.93359375 14.1640625 C21.43487793 15.12731445 21.93616211 16.09056641 22.45263672 17.08300781 C24.96654458 21.8220692 27.74326346 26.39948024 30.5 31 C31.4696442 32.64530668 32.43836888 34.29115555 33.40625 35.9375 C38.5686095 44.64617603 43.79135632 53.3189272 49 62 C49.66 41.54 50.32 21.08 51 0 C54.3 0 57.6 0 61 0 C61 28.71 61 57.42 61 87 C57.04 87 53.08 87 49 87 C48.52433594 86.13503906 48.04867187 85.27007813 47.55859375 84.37890625 C42.24938231 74.79992173 36.68493301 65.38728356 31.02124023 56.01391602 C24.60376864 45.38593772 18.3175803 34.69128973 12 24 C11.67 44.79 11.34 65.58 11 87 C7.37 87 3.74 87 0 87 C0 58.29 0 29.58 0 0 Z " fill="#000000" transform="translate(514,447)"/>
<path d="M0 0 C9.24 0 18.48 0 28 0 C28 29.04 28 58.08 28 88 C18.76 88 9.52 88 0 88 C0 58.96 0 29.92 0 0 Z " fill="#000000" transform="translate(92,446)"/>
<path d="M0 0 C8.91 0 17.82 0 27 0 C27 29.04 27 58.08 27 88 C18.09 88 9.18 88 0 88 C0 58.96 0 29.92 0 0 Z " fill="#000000" transform="translate(48,446)"/>
<path d="M0 0 C3.63 0 7.26 0 11 0 C11.02505615 1.09127197 11.0501123 2.18254395 11.07592773 3.30688477 C11.34063063 14.73769755 11.63016922 26.16771172 11.93682861 37.59747314 C11.9931437 39.73924209 12.04609731 41.88105004 12.09716797 44.02294922 C12.17579271 47.18259761 12.27142469 50.34108827 12.375 53.5 C12.39361084 54.37342041 12.41222168 55.24684082 12.43139648 56.14672852 C12.63937809 61.67617043 13.66427328 65.95770843 16 71 C22.29908367 76.11800548 28.12076649 76.78469856 36 76 C40.66027017 74.53273712 44.6423774 72.43787784 47 68 C48.26748036 63.66699886 48.32437849 59.29664916 48.5 54.8125 C48.55982056 53.37765259 48.55982056 53.37765259 48.62084961 51.91381836 C49.29557397 34.6169371 49.61339592 17.3051943 50 0 C53.63 0 57.26 0 61 0 C61.04656492 7.91107383 61.08199091 15.82208935 61.10362434 23.73326683 C61.11401301 27.40767674 61.12808106 31.08199213 61.15087891 34.75634766 C61.17278437 38.30955546 61.18460549 41.86267297 61.18975449 45.41594315 C61.19518867 47.4153771 61.21077258 49.4147753 61.22659302 51.41415405 C61.22797634 62.77408957 60.70526456 72.88723318 52.5859375 81.5 C45.8945955 87.51147302 39.32745273 88.56089359 30.6875 88.5 C29.28745728 88.49141968 29.28745728 88.49141968 27.85913086 88.48266602 C18.95835769 88.25124435 12.88119754 86.2223326 6.5625 79.8125 C-1.109527 69.82152698 -0.14889201 55.56818175 -0.09765625 43.65234375 C-0.0962413 42.39990372 -0.09482635 41.14746368 -0.09336853 39.85707092 C-0.08874587 36.55768629 -0.07979075 33.25835224 -0.06866455 29.95898438 C-0.05836054 26.58008436 -0.05385182 23.20117689 -0.04882812 19.82226562 C-0.03784325 13.21482172 -0.02060164 6.60742063 0 0 Z " fill="#000000" transform="translate(440,447)"/>
<path d="M0 0 C0.77943466 0.00222061 1.55886932 0.00444122 2.36192322 0.00672913 C3.68317955 0.00684242 3.68317955 0.00684242 5.03112793 0.00695801 C5.98841293 0.01211929 6.94569794 0.01728058 7.93199158 0.02259827 C9.39480812 0.02472069 9.39480812 0.02472069 10.88717651 0.02688599 C14.01542675 0.03250319 17.14360656 0.04505859 20.27183533 0.05775452 C22.38706867 0.0627673 24.50230313 0.06733059 26.61753845 0.07142639 C31.8148314 0.08247821 37.0120714 0.09975436 42.20933533 0.12025452 C42.20933533 3.75025452 42.20933533 7.38025452 42.20933533 11.12025452 C30.65933533 11.12025452 19.10933533 11.12025452 7.20933533 11.12025452 C7.20933533 19.37025452 7.20933533 27.62025452 7.20933533 36.12025452 C17.10933533 36.12025452 27.00933533 36.12025452 37.20933533 36.12025452 C37.20933533 40.08025452 37.20933533 44.04025452 37.20933533 48.12025452 C27.30933533 48.12025452 17.40933533 48.12025452 7.20933533 48.12025452 C7.20933533 57.36025452 7.20933533 66.60025452 7.20933533 76.12025452 C19.41933533 76.12025452 31.62933533 76.12025452 44.20933533 76.12025452 C44.20933533 79.75025452 44.20933533 83.38025452 44.20933533 87.12025452 C28.69933533 87.12025452 13.18933533 87.12025452 -2.79066467 87.12025452 C-2.83077348 65.6976938 -2.83077348 65.6976938 -2.8394928 56.59877014 C-2.84548141 50.37879081 -2.85258219 44.15882614 -2.86610413 37.93885803 C-2.87693244 32.92683183 -2.88294139 27.91482134 -2.88554192 22.90278435 C-2.88739627 20.98613169 -2.89101707 19.06947994 -2.89639473 17.15283394 C-2.90360442 14.47797379 -2.90465565 11.80317938 -2.90419006 9.12831116 C-2.90778534 8.32774292 -2.91138062 7.52717468 -2.91508484 6.7023468 C-2.90274608 0.19493785 -2.90274608 0.19493785 0 0 Z " fill="#000000" transform="translate(595.7906646728516,446.87974548339844)"/>
<path d="M0 0 C41.33410673 1.18097448 41.33410673 1.18097448 47 7 C52.72320247 16.53867078 53.5925918 27.30567094 51.3515625 38.1328125 C49.28865297 43.89838015 46.27443363 47.86583441 41 51 C34.31185835 53.341356 27.43494656 53.24445184 20.4375 53.125 C16.993125 53.08375 13.54875 53.0425 10 53 C10 64.55 10 76.1 10 88 C5.05 88.495 5.05 88.495 0 89 C0 59.63 0 30.26 0 0 Z M10 12 C10 21.57 10 31.14 10 41 C18.81908298 42.259869 27.52472094 43.21476102 36 40 C39.47172756 36.97847153 41.74078622 33.61706225 42.203125 28.94921875 C42.30861154 23.8594934 41.9118715 20.36780726 39 16 C35.05020362 12.30502919 31.27687588 11.87026295 26.015625 11.90234375 C25.17290039 11.90484131 24.33017578 11.90733887 23.46191406 11.90991211 C22.40198242 11.91901611 21.34205078 11.92812012 20.25 11.9375 C15.17625 11.9684375 15.17625 11.9684375 10 12 Z " fill="#000000" transform="translate(377,446)"/>
</svg>
